<svg width="888" height="277" viewBox="0 0 888 277" fill="none" xmlns="http://www.w3.org/2000/svg">
<path d="M6.15116 276.553C4.53385 276.555 2.85414 276.145 2.06761 275.378C1.3227 274.65 0.498203 272.69 0.500003 271.325L0.529838 248.886C0.530738 248.03 0.814599 246.141 1.37962 245.592L45.6876 202.605C45.9904 202.312 46.9306 201.977 47.2868 201.884C47.7325 201.767 48.595 202.862 48.5959 203.429L48.6239 271.737C48.6248 274.37 46.7381 276.513 44.0974 276.515L6.15116 276.553Z" fill="url(#paint0_linear_1888_2950)"/>
<path d="M39.8211 50.9885L26.9783 58.8799L13.8137 50.9397C13.2134 50.5771 11.5328 50.5889 10.9027 50.9885L4.9387 54.7701C4.29592 55.1787 2.6822 55.4065 2.10182 55.0513C1.43915 54.6444 0.544151 53.2341 0.546881 52.2126L0.660773 6.94363C0.667103 4.3174 3.06643 2.644 5.40518 2.64308L48.9375 2.625C51.052 2.62409 53.7596 3.86806 53.7587 6.44911L53.7425 52.7333C53.7425 53.4791 52.9098 54.7601 52.4053 55.1236C51.8286 55.5403 50.2022 55.4409 49.582 55.044L43.6308 51.238C42.5866 50.5708 41.0108 50.2571 39.8211 50.9885Z" fill="url(#paint1_linear_1888_2950)"/>
<path d="M37.3921 108.959L28.0361 114.649C27.4512 115.004 25.7426 115.088 25.1766 114.727L14.1699 107.724L14.1094 93.7825C14.1067 93.0773 14.951 91.6092 15.5513 91.2366L25.192 85.2655C25.9035 84.8252 27.4657 84.8984 28.1717 85.3297L37.7817 91.2005C38.467 91.6191 39.2688 93.0059 39.2643 93.7879L39.1929 105.808C39.1857 106.884 38.5239 108.271 37.3921 108.959Z" fill="url(#paint2_linear_1888_2950)"/>
<path d="M42.8369 86.4402C42.0296 86.9347 40.4412 87.0965 39.6267 86.5975L30.2933 80.8804C29.6424 80.4817 28.7004 78.971 28.7031 78.2306L28.7538 65.565C28.7574 64.7875 29.731 63.4043 30.4018 62.9876L39.9268 57.0806C40.7377 56.9151 41.7991 56.926 42.5033 57.1619L51.8638 62.8601C52.8826 63.4812 53.765 64.858 53.7686 66.0875L53.802 77.7352C53.8047 78.8155 53.0218 80.2023 52.1567 80.7321L42.8369 86.4402Z" fill="url(#paint3_linear_1888_2950)"/>
<path d="M13.9069 86.5671C13.1628 87.0173 11.5256 86.9984 10.8657 86.587L1.37777 80.6701C0.802804 80.3121 -0.00179699 78.8638 3.01483e-06 78.0872L0.0316459 66.0725C0.0352609 64.7842 0.901332 63.4625 1.98166 62.8071L12.5192 56.4219L23.383 63.0467C24.0122 63.43 24.9361 64.8493 24.9352 65.568L24.9135 77.6687C24.9108 79.003 24.0285 80.434 22.8957 81.1202L13.9069 86.5671Z" fill="url(#paint4_linear_1888_2950)"/>
<path d="M169.681 276.49C164.236 276.489 159.992 274.475 156.338 270.898L66.0812 182.55C65.2413 181.727 64.3987 179.725 65.1726 178.96L98.3084 146.211C99.8191 144.718 101.757 144.616 103.394 146.285L226.56 271.907C227.198 272.558 227.479 274.181 227.377 274.849C227.262 275.613 225.904 276.499 224.791 276.499L169.681 276.49Z" fill="url(#paint5_linear_1888_2950)"/>
<path d="M150.582 148.624C157.716 148.624 163.499 142.841 163.499 135.706C163.499 128.572 157.716 122.789 150.582 122.789C143.448 122.789 137.664 128.572 137.664 135.706C137.664 142.841 143.448 148.624 150.582 148.624Z" fill="url(#paint6_linear_1888_2950)"/>
<path d="M221.821 4.41263C221.641 3.89462 220.513 3.25 219.826 3.25L162.508 3.27353C157.408 3.27353 152.858 5.0581 149.193 8.79453L89.3613 69.7721L5.15896 155.656C2.15755 158.718 0.56643 161.683 0.57819 166.156L0.747253 228.019L38.1375 191.117L162.448 66.3783L221.327 6.81827C221.81 6.33008 222.008 4.92519 221.821 4.41263ZM107.938 89.9051C92.0255 107.018 75.4852 123.088 58.2279 139.194C55.4553 141.689 53.4664 143.968 50.5608 145.885C68.0775 126.198 86.0643 107.463 104.907 89.2415C107.619 86.6261 109.898 84.1598 113.442 82.4187C112.357 85.6614 110.133 87.5537 107.938 89.9051Z" fill="url(#paint7_linear_1888_2950)"/>
<path d="M316.933 91.3114L289.888 49.3568L277.406 62.8655V91.3114H259.203V0H277.406V38.3165L313.032 0H335.267L301.331 36.8877L337.738 91.3114H316.933ZM445.567 0H464.161L438.676 91.181H418.132L403.57 31.0435L387.577 91.181H367.163L343.369 0H362.482L377.955 64.8139L395.639 0H412.541L428.534 64.8139L445.567 0ZM542.78 16.6248H494.282V36.6278H531.208V53.2538H494.282V74.6855H542.78V91.3114H476.078V0H542.78V16.6248ZM630.667 0V16.6248H601.282V91.3114H583.079V16.6248H553.694V0H630.667ZM719.203 53.1244C719.203 78.7118 706.201 93 682.146 93C657.962 93 644.83 78.7118 644.83 53.1244V0H663.033V53.1244C663.033 69.2306 668.754 76.3741 682.146 76.3741C695.409 76.3741 701 69.2306 701 53.1244V0H719.203V53.1244Z" fill="white"/>
<path d="M341.506 180.772C339.296 203.056 323.302 217 300.289 217C274.415 217 259.203 198.495 259.203 169.435C259.203 140.505 276.105 122 301.979 122C324.082 122 339.686 135.813 341.897 158.097H323.302C321.611 145.326 313.551 138.679 301.199 138.679C285.597 138.679 277.795 149.626 277.795 169.435C277.795 189.243 285.597 200.319 301.199 200.319C312.901 200.319 321.351 194.194 323.042 180.772H341.506ZM397.606 122C423.474 122 440.901 140.505 440.901 169.564C440.901 198.495 423.474 217 397.606 217C371.605 217 354.177 198.495 354.177 169.564C354.177 140.505 371.605 122 397.606 122ZM397.606 138.679C382.133 138.679 372.766 149.626 372.766 169.564C372.766 189.372 382.133 200.319 397.606 200.319C412.946 200.319 422.302 189.372 422.302 169.564C422.302 149.626 413.08 138.679 397.606 138.679ZM513.793 123.694H530.952V215.306H515.49L473.881 155.882V215.306H456.587V123.694H472.061L513.793 183.117V123.694ZM606.489 123.694H623.649V215.306H608.175L566.566 155.882V215.306H549.273V123.694H564.746L606.489 183.117V123.694ZM708.665 140.374H660.167V160.442H697.087V177.123H660.167V198.625H708.665V215.306H641.969V123.694H708.665V140.374ZM803.427 180.772C801.216 203.056 785.229 217 762.208 217C736.341 217 721.124 198.495 721.124 169.435C721.124 140.505 738.027 122 763.905 122C785.999 122 801.607 135.813 803.817 158.097H785.229C783.532 145.326 775.471 138.679 763.124 138.679C747.516 138.679 739.712 149.626 739.712 169.435C739.712 189.243 747.516 200.319 763.124 200.319C774.824 200.319 783.275 194.194 784.961 180.772H803.427ZM887.203 123.694V140.374H857.819V215.306H839.621V140.374H810.237V123.694H887.203Z" fill="url(#paint8_linear_1888_2950)"/>
<path d="M283.928 269.356H268.279L265.194 276.556H259.203L273.287 245.444H279.01L293.138 276.556H287.058L283.928 269.356ZM282.005 264.822L276.104 251.222L270.247 264.822H282.005ZM328.416 245.444H342.097C345.436 245.444 348.401 246.096 350.995 247.4C353.588 248.674 355.6 250.496 357.03 252.867C358.461 255.207 359.177 257.918 359.177 261C359.177 264.082 358.461 266.807 357.03 269.178C355.6 271.519 353.588 273.341 350.995 274.644C348.401 275.919 345.436 276.556 342.097 276.556H328.416V245.444ZM341.829 271.667C344.124 271.667 346.136 271.237 347.865 270.378C349.623 269.489 350.965 268.244 351.889 266.644C352.843 265.015 353.319 263.133 353.319 261C353.319 258.867 352.843 257 351.889 255.4C350.965 253.77 349.623 252.526 347.865 251.667C346.136 250.778 344.124 250.333 341.829 250.333H334.228V271.667L341.829 271.667ZM424.262 245.444L410.626 276.556H404.903L391.221 245.444H397.525L407.943 269.444L418.45 245.444H424.262ZM482.335 271.711V276.556H458.862V245.444H481.709V250.289H464.675V258.378H479.787V263.133H464.675V271.711H482.335ZM540.589 276.556L534.196 267.444C533.928 267.474 533.525 267.489 532.989 267.489H525.924V276.556H520.112V245.444H532.989C535.701 245.444 538.056 245.889 540.053 246.778C542.08 247.667 543.63 248.941 544.703 250.6C545.776 252.259 546.312 254.23 546.312 256.511C546.312 258.852 545.731 260.867 544.569 262.556C543.436 264.245 541.797 265.504 539.651 266.333L546.849 276.556H540.589ZM540.455 256.511C540.455 254.526 539.8 253 538.488 251.933C537.177 250.867 535.254 250.333 532.72 250.333H525.924V262.733H532.72C535.254 262.733 537.177 262.2 538.488 261.133C539.8 260.037 540.455 258.496 540.455 256.511ZM590.027 250.333H579.652V245.444H606.213V250.333H595.84V276.556H590.027V250.333ZM641.869 245.444H647.682V276.556H641.869V245.444ZM697.146 277C694.732 277 692.392 276.659 690.127 275.978C687.891 275.296 686.118 274.393 684.806 273.267L686.818 268.778C688.1 269.785 689.665 270.615 691.513 271.267C693.391 271.889 695.268 272.2 697.146 272.2C699.471 272.2 701.2 271.83 702.333 271.089C703.495 270.348 704.076 269.37 704.076 268.156C704.076 267.267 703.749 266.541 703.093 265.978C702.467 265.385 701.662 264.926 700.678 264.6C699.695 264.274 698.353 263.904 696.654 263.489C694.27 262.926 692.332 262.363 690.842 261.8C689.382 261.237 688.115 260.363 687.042 259.178C685.998 257.963 685.477 256.333 685.477 254.289C685.477 252.57 685.939 251.015 686.863 249.622C687.817 248.2 689.233 247.074 691.11 246.245C693.018 245.415 695.343 245 698.085 245C699.993 245 701.871 245.237 703.719 245.711C705.567 246.185 707.161 246.867 708.503 247.756L706.67 252.244C705.299 251.444 703.868 250.837 702.377 250.422C700.887 250.007 699.441 249.8 698.041 249.8C695.745 249.8 694.031 250.185 692.899 250.956C691.796 251.726 691.245 252.748 691.245 254.022C691.245 254.911 691.558 255.637 692.183 256.2C692.839 256.763 693.659 257.207 694.643 257.533C695.626 257.859 696.967 258.23 698.666 258.645C700.991 259.178 702.899 259.741 704.389 260.333C705.88 260.896 707.147 261.77 708.19 262.956C709.263 264.141 709.799 265.741 709.799 267.756C709.799 269.474 709.322 271.03 708.369 272.422C707.445 273.815 706.029 274.926 704.121 275.756C702.213 276.585 699.888 277 697.146 277ZM746.864 245.444H752.677V276.556H746.864V245.444ZM820.249 245.444V276.556H815.465L798.207 255.489V276.556H792.439V245.444H797.223L814.482 266.511V245.444H820.249ZM881.301 260.645H886.801V273.044C885.191 274.319 883.313 275.296 881.167 275.978C879.021 276.659 876.815 277 874.55 277C871.361 277 868.484 276.319 865.921 274.956C863.358 273.563 861.346 271.652 859.885 269.222C858.424 266.793 857.694 264.052 857.694 261C857.694 257.948 858.424 255.207 859.885 252.778C861.346 250.348 863.358 248.452 865.921 247.089C868.514 245.696 871.42 245 874.639 245C877.262 245 879.647 245.43 881.793 246.289C883.939 247.148 885.743 248.407 887.203 250.067L883.537 253.622C881.152 251.252 878.276 250.067 874.908 250.067C872.702 250.067 870.735 250.526 869.006 251.444C867.307 252.363 865.966 253.652 864.982 255.311C864.028 256.97 863.551 258.867 863.551 261C863.551 263.074 864.028 264.941 864.982 266.6C865.966 268.259 867.307 269.563 869.006 270.511C870.735 271.459 872.687 271.933 874.863 271.933C877.307 271.933 879.453 271.4 881.301 270.333V260.645Z" fill="white"/>
<defs>
<linearGradient id="paint0_linear_1888_2950" x1="24.562" y1="201.875" x2="24.562" y2="329.428" gradientUnits="userSpaceOnUse">
<stop stop-color="#EDB347"/>
<stop offset="1" stop-color="#9A650C"/>
</linearGradient>
<linearGradient id="paint1_linear_1888_2950" x1="27.1528" y1="2.62499" x2="27.1528" y2="85.6174" gradientUnits="userSpaceOnUse">
<stop stop-color="#EDB347"/>
<stop offset="1" stop-color="#9A650C"/>
</linearGradient>
<linearGradient id="paint2_linear_1888_2950" x1="26.6869" y1="84.9687" x2="26.6869" y2="126.922" gradientUnits="userSpaceOnUse">
<stop stop-color="#EDB347"/>
<stop offset="1" stop-color="#9A650C"/>
</linearGradient>
<linearGradient id="paint3_linear_1888_2950" x1="41.2526" y1="56.9687" x2="41.2526" y2="105.869" gradientUnits="userSpaceOnUse">
<stop stop-color="#EDB347"/>
<stop offset="1" stop-color="#9A650C"/>
</linearGradient>
<linearGradient id="paint4_linear_1888_2950" x1="12.4676" y1="56.4219" x2="12.4676" y2="106.508" gradientUnits="userSpaceOnUse">
<stop stop-color="#EDB347"/>
<stop offset="1" stop-color="#9A650C"/>
</linearGradient>
<linearGradient id="paint5_linear_1888_2950" x1="146.132" y1="145.063" x2="146.132" y2="323.983" gradientUnits="userSpaceOnUse">
<stop stop-color="#EDB347"/>
<stop offset="1" stop-color="#9A650C"/>
</linearGradient>
<linearGradient id="paint6_linear_1888_2950" x1="150.581" y1="122.789" x2="150.581" y2="165.184" gradientUnits="userSpaceOnUse">
<stop stop-color="#EDB347"/>
<stop offset="1" stop-color="#9A650C"/>
</linearGradient>
<linearGradient id="paint7_linear_1888_2950" x1="111.235" y1="3.24998" x2="111.235" y2="274.769" gradientUnits="userSpaceOnUse">
<stop stop-color="#EDB347"/>
<stop offset="1" stop-color="#9A650C"/>
</linearGradient>
<linearGradient id="paint8_linear_1888_2950" x1="573.203" y1="123.55" x2="573.203" y2="266.146" gradientUnits="userSpaceOnUse">
<stop stop-color="#EDB347"/>
<stop offset="1" stop-color="#9A650C"/>
</linearGradient>
</defs>
</svg>
